<?xml version="1.0" encoding="UTF-8"?>
<!DOCTYPE svg PUBLIC "-//W3C//DTD SVG 1.1//EN" "http://www.w3.org/Graphics/SVG/1.1/DTD/svg11.dtd">
<!-- Creator: CorelDRAW -->
<svg xmlns="http://www.w3.org/2000/svg" xml:space="preserve" width="1.70666in" height="1.70666in" version="1.1" style="shape-rendering:geometricPrecision; text-rendering:geometricPrecision; image-rendering:optimizeQuality; fill-rule:evenodd; clip-rule:evenodd"
viewBox="0 0 1707 1707"
 xmlns:xlink="http://www.w3.org/1999/xlink">
 <defs>
  <style type="text/css">
   <![CDATA[
    .fil0 {fill:#000002}
   ]]>
  </style>
 </defs>
 <g id="Layer_x0020_1">
  <metadata id="CorelCorpID_0Corel-Layer"/>
  <g id="_236449816">
   <g>
    <g>
     <path class="fil0" d="M1041 1168c-3,0 -6,0 -9,-2l-179 -69 -178 69c-8,4 -18,2 -25,-3 -7,-5 -11,-13 -10,-22l11 -191 -122 -148c-5,-7 -7,-16 -4,-25 3,-8 9,-15 18,-17l185 -48 104 -162c4,-7 13,-11 21,-11 9,0 17,4 22,11l104 162 185 48c8,2 15,9 18,17 3,9 1,18 -5,25l-121 148 11 191c0,9 -4,17 -11,22 -4,4 -10,5 -15,5zm-188 -125c4,0 7,1 10,2l150 58 -9 -160c-1,-7 1,-13 5,-18l103 -125 -156 -41c-7,-2 -12,-5 -16,-11l-87 -136 -87 136c-3,6 -9,9 -15,11l-156 41 102 125c4,5 6,11 6,18l-9 160 150 -58c3,-1 6,-2 9,-2z"/>
    </g>
    <g>
     <path class="fil0" d="M853 1408c-306,0 -555,-249 -555,-555 0,-306 249,-555 555,-555 306,0 555,249 555,555 0,306 -249,555 -555,555zm0 -1058c-277,0 -503,226 -503,503 0,278 226,504 503,504 278,0 504,-226 504,-504 0,-277 -226,-503 -504,-503z"/>
    </g>
    <g>
     <path class="fil0" d="M853 214c-14,0 -26,-11 -26,-26l0 -162c0,-14 12,-26 26,-26 15,0 26,12 26,26l0 162c0,15 -11,26 -26,26z"/>
    </g>
    <g>
     <path class="fil0" d="M1186 303c-5,0 -9,-1 -13,-3 -13,-7 -17,-23 -10,-35l82 -141c7,-13 23,-17 35,-10 12,7 17,23 9,36l-81 140c-5,9 -13,13 -22,13z"/>
    </g>
    <g>
     <path class="fil0" d="M1429 547c-9,0 -18,-5 -22,-13 -7,-13 -3,-28 9,-36l141 -81c12,-7 28,-3 35,10 7,12 3,28 -9,35l-141 81c-4,3 -8,4 -13,4z"/>
    </g>
    <g>
     <path class="fil0" d="M1681 879l-163 0c-14,0 -26,-11 -26,-26 0,-14 12,-26 26,-26l163 0c14,0 26,12 26,26 0,15 -12,26 -26,26z"/>
    </g>
    <g>
     <path class="fil0" d="M1570 1293c-5,0 -9,-1 -13,-4l-141 -81c-12,-7 -16,-23 -9,-35 7,-13 23,-17 35,-10l141 82c12,7 16,23 9,35 -4,8 -13,13 -22,13z"/>
    </g>
    <g>
     <path class="fil0" d="M1267 1596c-9,0 -18,-5 -22,-13l-82 -141c-7,-12 -3,-28 10,-35 12,-7 28,-3 35,9l81 141c8,12 3,28 -9,35 -4,3 -9,4 -13,4z"/>
    </g>
    <g>
     <path class="fil0" d="M853 1707c-14,0 -26,-12 -26,-26l0 -163c0,-14 12,-26 26,-26 15,0 26,12 26,26l0 163c0,14 -11,26 -26,26z"/>
    </g>
    <g>
     <path class="fil0" d="M440 1596c-5,0 -9,-1 -13,-4 -13,-7 -17,-23 -10,-35l81 -141c8,-12 23,-17 36,-9 12,7 16,23 9,35l-81 141c-5,8 -13,13 -22,13z"/>
    </g>
    <g>
     <path class="fil0" d="M137 1293c-9,0 -18,-5 -23,-13 -7,-12 -3,-28 10,-35l141 -82c12,-7 28,-3 35,10 7,12 3,28 -9,35l-141 81c-4,3 -9,4 -13,4z"/>
    </g>
    <g>
     <path class="fil0" d="M188 879l-162 0c-14,0 -26,-11 -26,-26 0,-14 12,-26 26,-26l162 0c15,0 26,12 26,26 0,15 -11,26 -26,26z"/>
    </g>
    <g>
     <path class="fil0" d="M278 547c-5,0 -9,-1 -13,-4l-141 -81c-13,-7 -17,-23 -10,-35 7,-13 23,-17 36,-10l141 81c12,8 16,23 9,36 -5,8 -14,13 -22,13z"/>
    </g>
    <g>
     <path class="fil0" d="M521 303c-9,0 -18,-4 -23,-12l-81 -141c-7,-13 -3,-29 10,-36 12,-7 28,-3 35,10l81 141c7,12 3,28 -9,35 -4,2 -9,3 -13,3z"/>
    </g>
   </g>
  </g>
 </g>
</svg>
