<?xml version="1.0" encoding="UTF-8"?>
<!DOCTYPE svg PUBLIC "-//W3C//DTD SVG 1.1//EN" "http://www.w3.org/Graphics/SVG/1.1/DTD/svg11.dtd">
<!-- Creator: CorelDRAW -->
<svg xmlns="http://www.w3.org/2000/svg" xml:space="preserve" width="3in" height="3in" style="shape-rendering:geometricPrecision; text-rendering:geometricPrecision; image-rendering:optimizeQuality; fill-rule:evenodd; clip-rule:evenodd"
viewBox="0 0 3 3"
 xmlns:xlink="http://www.w3.org/1999/xlink">
 <defs>
  <style type="text/css">
   <![CDATA[
    .fil0 {fill:#6577B5}
   ]]>
  </style>
 </defs>
 <g id="Layer_x0020_1">
  <metadata id="CorelCorpID_0Corel-Layer"/>
  <path class="fil0" d="M1.49999 2.13761c-0.0046063,0 -0.00920472,-0.00119685 -0.0133307,-0.00357087l-0.333693 -0.19265c-0.00825197,-0.00476378 -0.0133307,-0.0135827 -0.0133307,-0.0230945l0 -0.232244 0.344232 0.0960551c0.00524803,0.00146457 0.0106732,0.00219685 0.016122,0.00219685 0.00544882,0 0.010874,-0.000728346 0.016122,-0.00219291l0.344248 -0.0960551 0 0.232217c0,0.00952756 -0.00508268,0.0183386 -0.0133346,0.0230984l-0.333701 0.192669c-0.00412598,0.00237402 -0.00872441,0.00357087 -0.0133346,0.00357087z"/>
  <path class="fil0" d="M1.49999 1.75097c-0.00241339,0 -0.0048189,-0.000318898 -0.00716535,-0.000968504l-0.604157 -0.168583c-0.0115276,-0.00320866 -0.0195039,-0.0137205 -0.0195039,-0.0256929 0,-0.0119764 0.00797638,-0.0224724 0.0195039,-0.0256969l0.604157 -0.168583c0.00469291,-0.00130709 0.00965354,-0.00130709 0.0143386,0l0.604169 0.168583c0.0115276,0.00320866 0.0195,0.0137205 0.0195,0.0256969 0,0.0119724 -0.00797244,0.0224685 -0.0195,0.0256929l-0.604177 0.168583c-0.00234646,0.000649606 -0.00474803,0.000968504 -0.00716535,0.000968504z"/>
  <path class="fil0" d="M2.29293 2.30281l-1.58585 0c-0.0333071,0 -0.0604016,-0.0270984 -0.0604016,-0.0604055l0 -1.28188c0,-0.0333071 0.0270945,-0.0604055 0.0604016,-0.0604055l0.169189 0c0.0147362,0 0.0266654,0.0119331 0.0266654,0.0266654l0 0.108059c0,0.0376102 0.0305984,0.0682087 0.0682087,0.0682087 0.0376142,0 0.0682205,-0.0305984 0.0682205,-0.0682087l0 -0.108059c0,-0.0147323 0.0119331,-0.0266654 0.0266654,-0.0266654l0.339094 0c0.0147362,0 0.0266654,0.0119331 0.0266654,0.0266654l0 0.108059c0,0.0376102 0.0305984,0.0682087 0.0682087,0.0682087 0.0376142,0 0.0682087,-0.0305984 0.0682087,-0.0682087l0 -0.108059c0,-0.0147323 0.0119331,-0.0266654 0.0266693,-0.0266654l0.339102 0c0.0147362,0 0.0266654,0.0119331 0.0266654,0.0266654l0 0.108059c0,0.0376102 0.0305984,0.0682087 0.0682087,0.0682087 0.0376102,0 0.0682087,-0.0305984 0.0682087,-0.0682087l0 -0.108059c0,-0.0147323 0.0119331,-0.0266654 0.0266693,-0.0266654l0.169205 0c0.0332913,0 0.0604016,0.0270984 0.0604016,0.0604055l0 1.28188c-1.5748e-005,0.0333071 -0.0271102,0.0604055 -0.0604016,0.0604055zm-1.58585 -1.34936c-0.00383071,0 -0.00707087,0.00323228 -0.00707087,0.00707087l0 1.28188c0,0.00382283 0.00323228,0.00707087 0.00707087,0.00707087l1.58585 0c0.0038189,0 0.00707087,-0.00323228 0.00707087,-0.00707087l0 -1.28188c0,-0.00383465 -0.00323622,-0.00707087 -0.00707087,-0.00707087l-0.142539 0 0 0.0813898c0,0.0670118 -0.0545315,0.121539 -0.121543,0.121539 -0.0670118,0 -0.121539,-0.0545276 -0.121539,-0.121539l0 -0.0813898 -0.285772 0 0 0.0813898c0,0.0670118 -0.0545315,0.121539 -0.121528,0.121539 -0.0670276,0 -0.121539,-0.0545276 -0.121539,-0.121539l0 -0.0813898 -0.285776 0 0 0.0813898c0,0.0670118 -0.0545315,0.121539 -0.121543,0.121539 -0.0670276,0 -0.121543,-0.0545276 -0.121543,-0.121539l0 -0.0813898 -0.142531 0z"/>
  <path class="fil0" d="M2.32666 1.24863l-1.65333 0c-0.0147362,0 -0.0266654,-0.0119331 -0.0266654,-0.0266693 0,-0.0147323 0.0119291,-0.0266654 0.0266654,-0.0266654l1.65333 0c0.0147362,0 0.0266654,0.0119331 0.0266654,0.0266654 0,0.0147362 -0.0119449,0.0266693 -0.0266654,0.0266693z"/>
  <path class="fil0" d="M0.971134 1.15638c-0.0670118,0 -0.121539,-0.0545315 -0.121539,-0.121543l0 -0.216106c0,-0.0670276 0.0545276,-0.121543 0.121539,-0.121543 0.0670157,0 0.121543,0.0545315 0.121543,0.121543l0 0.216106c0,0.0670197 -0.0545118,0.121543 -0.121543,0.121543z"/>
  <path class="fil0" d="M1.49999 1.15638c-0.0670118,0 -0.121539,-0.0545315 -0.121539,-0.121543l0 -0.216106c0,-0.0670276 0.0545276,-0.121543 0.121539,-0.121543 0.0670118,0 0.121543,0.0545315 0.121543,0.121543l0 0.216106c0,0.0670197 -0.0545315,0.121543 -0.121543,0.121543z"/>
  <path class="fil0" d="M2.02884 1.15638c-0.0670118,0 -0.121539,-0.0545315 -0.121539,-0.121543l0 -0.216106c0,-0.0670276 0.0545276,-0.121543 0.121539,-0.121543 0.0670118,0 0.121543,0.0545315 0.121543,0.121543l0 0.216106c0,0.0670197 -0.0545315,0.121543 -0.121543,0.121543z"/>
  <path class="fil0" d="M0.580669 0l1.83866 0c0.31937,0 0.580669,0.261299 0.580669,0.580669l0 1.83866c0,0.31937 -0.261299,0.580669 -0.580669,0.580669l-1.83866 0c-0.31937,0 -0.580669,-0.261299 -0.580669,-0.580669l0 -1.83866c0,-0.31937 0.261299,-0.580669 0.580669,-0.580669zm0.157594 0.257142l1.52347 0c0.264618,0 0.481122,0.216504 0.481122,0.481122l0 1.52347c0,0.264618 -0.216504,0.481122 -0.481122,0.481122l-1.52347 0c-0.264618,0 -0.481122,-0.216504 -0.481122,-0.481122l0 -1.52347c0,-0.264618 0.216504,-0.481122 0.481122,-0.481122z"/>
 </g>
</svg>
